# xmcd
#
# Track frame offsets: 
#        150
#        16850
#        29282
#        48616
#        67579
#        81070
#        97657
#        110803
#        123743
#        143380
#        162221
#        183115
#        196654
#        223111
#
# Disc length: 3174 seconds
#
# Revision: 0
# Processed by: cddbd v1.5.2PL0 Copyright (c) Steve Scherf et al.
# Submitted via: ExactAudioCopyFreeDBPlugin 1.0
#
DISCID=ac0c640e
DTITLE=Kyle Jester - After All This
DYEAR=2014
DGENRE=Blues
TTITLE0=You'll Always Have A Home
TTITLE1=Whatcha Gonna Do
TTITLE2=Drive It Home
TTITLE3=Hadacol Bounce
TTITLE4=Big Fat Wallet
TTITLE5=You Tried To Ruin Me
TTITLE6=Ace Of Spades
TTITLE7=Knocks Me Out
TTITLE8=Number Nine Train
TTITLE9=How Can You Be So Mean
TTITLE10=After All This
TTITLE11=BB Boogie
TTITLE12=No Fightin'
TTITLE13=Turn Your Damper Down
EXTD=
EXTT0=
EXTT1=
EXTT2=
EXTT3=
EXTT4=
EXTT5=
EXTT6=
EXTT7=
EXTT8=
EXTT9=
EXTT10=
EXTT11=
EXTT12=
EXTT13=
PLAYORDER=
